<svg width="574" height="133" viewBox="0 0 574 133" fill="none" xmlns="http://www.w3.org/2000/svg">
<g clip-path="url(#clip0_1330_5534)">
<path d="M506.931 97.2932L494.807 94.8951V93.0299C494.807 88.2337 490.944 84.3701 486.147 84.3701H474.823C474.157 84.3701 473.491 84.5033 472.825 84.6365C471.226 84.2368 469.361 84.3701 467.762 84.903L440.45 95.2947C439.651 91.4311 436.187 88.5001 432.057 88.5001H431.79C430.325 85.9688 427.527 84.3701 424.463 84.3701H414.737C412.472 84.3701 410.341 85.3027 408.875 86.7682C407.277 85.3027 405.278 84.3701 403.013 84.3701H396.085C395.419 80.24 391.822 77.1758 387.559 77.1758H380.498C380.098 77.1758 379.698 77.1758 379.432 77.309C379.032 77.309 378.766 77.1758 378.366 77.1758H371.305C367.042 77.1758 363.578 80.24 362.778 84.3701H347.99C343.194 84.3701 339.33 88.2337 339.33 93.0299V93.696H324.009C323.077 89.9656 319.746 87.1679 315.616 87.1679H308.555C306.956 85.4359 304.691 84.5033 302.293 84.5033H291.502C290.436 84.5033 289.503 84.6365 288.704 85.0362C288.171 80.7729 284.574 77.4422 280.177 77.4422H273.116C272.717 77.4422 272.317 77.4422 272.05 77.5755C271.651 77.5755 271.384 77.4422 270.985 77.4422H263.79C259.527 77.4422 255.93 80.5065 255.264 84.6365H239.543C234.747 84.6365 231.016 88.5001 231.016 93.2963V95.6944H216.494C216.095 91.2979 212.498 87.834 207.968 87.834H201.173C199.575 85.8356 197.176 84.6365 194.512 84.6365H183.454C180.789 84.6365 178.258 85.8356 176.793 87.834H168.532C164.003 87.834 160.272 91.2979 160.006 95.6944H142.953C141.354 93.9625 139.089 92.8966 136.558 92.8966H125.5C124.701 92.8966 123.901 93.0299 123.235 93.1631C123.102 88.5001 119.371 84.7698 114.575 84.7698H103.384C98.5879 84.7698 94.7243 88.6334 94.7243 93.4296V96.2273L88.9955 95.0283V93.1631C88.9955 88.3669 85.1319 84.5033 80.3357 84.5033H69.0114C64.2152 84.5033 60.3516 88.3669 60.3516 93.1631V123.672C60.3516 128.468 64.2152 132.332 69.0114 132.332H80.3357C85.1319 132.332 88.9955 128.468 88.9955 123.672V121.008L94.7243 122.207V123.672C94.7243 128.468 98.5879 132.332 103.384 132.332H121.503C123.501 132.332 125.367 131.666 126.965 130.467L136.425 122.873C137.091 122.34 137.757 121.541 138.29 120.874H163.337C162.537 122.873 162.67 125.271 163.603 127.269C164.935 130.334 168 132.332 171.463 132.332H184.919C187.318 132.332 189.716 131.266 191.314 129.534L201.306 118.61C201.973 117.943 202.506 117.011 202.772 116.211C204.237 119.009 207.035 120.874 210.366 120.874H227.286C226.487 122.873 226.62 125.271 227.419 127.269C228.751 130.467 231.949 132.465 235.28 132.465H248.069C250.467 132.465 252.732 131.399 254.464 129.667L257.662 126.204L259.261 128.602C260.859 131 263.524 132.332 266.322 132.332H278.712C279.111 132.332 279.511 132.332 279.911 132.199C280.311 132.199 280.71 132.332 281.11 132.332H306.423C308.422 132.332 310.42 131.533 312.019 130.334C313.484 131.666 315.483 132.332 317.614 132.332H347.324C348.123 132.332 348.79 132.199 349.589 132.066C350.388 132.332 351.054 132.332 351.987 132.332H367.042C368.64 132.332 370.239 131.932 371.705 131L387.692 120.874H394.22C393.554 122.873 393.554 125.138 394.487 127.136C395.819 130.334 399.016 132.332 402.347 132.332H415.004C417.402 132.332 419.667 131.266 421.265 129.534L428.726 121.407C429.259 121.94 429.792 122.473 430.458 122.873C432.856 124.472 435.787 124.738 438.452 123.672L440.184 123.006V123.539C440.184 128.335 444.047 132.199 448.844 132.199H460.035C463.232 132.199 466.163 130.334 467.629 127.802C469.094 130.467 471.892 132.332 475.223 132.332H486.547C491.343 132.332 495.207 128.468 495.207 123.672V121.008L503.6 122.606C506.131 123.139 508.796 122.473 510.661 120.741C512.66 119.143 513.859 116.611 513.859 114.08V105.687C513.859 101.69 510.928 98.0925 506.931 97.2932Z" fill="#231815"/>
<path d="M506.132 101.558L490.545 98.4933V93.1642C490.545 90.7661 488.679 88.9009 486.281 88.9009H474.957C474.291 88.9009 473.491 89.0341 472.958 89.4338C471.893 88.9009 470.56 88.7677 469.495 89.1674L436.587 101.558V97.2943C436.587 94.8962 434.722 93.031 432.324 93.031H428.993C428.86 90.7661 426.995 88.9009 424.73 88.9009H415.004C412.74 88.9009 410.741 90.7661 410.741 93.031H407.544C407.41 90.7661 405.545 88.9009 403.28 88.9009H393.555C393.022 88.9009 392.622 89.0341 392.222 89.1674V86.1031C392.222 83.705 390.357 81.8398 387.959 81.8398H380.898C380.498 81.8398 380.099 81.9731 379.832 81.9731C379.433 81.8398 379.166 81.8398 378.766 81.8398H371.705C369.307 81.8398 367.442 83.705 367.442 86.1031V88.9009H348.524C346.126 88.9009 344.26 90.7661 344.26 93.1642V98.0936H320.546V95.8288C320.546 93.4307 318.681 91.5655 316.283 91.5655H306.957C306.291 89.9667 304.825 88.9009 302.96 88.9009H292.168C290.303 88.9009 288.838 89.9667 288.172 91.5655H284.974V86.1031C284.974 83.705 283.109 81.8398 280.711 81.8398H273.65C273.25 81.8398 272.85 81.9731 272.584 81.9731C272.184 81.8398 271.918 81.8398 271.518 81.8398H263.791C261.393 81.8398 259.528 83.705 259.528 86.1031V89.0341H239.544C237.145 89.0341 235.28 90.8993 235.28 93.2974V100.092H212.232V96.4949C212.232 94.0968 210.367 92.2316 207.969 92.2316H198.909C198.376 90.3664 196.777 89.0341 194.779 89.0341H183.721C181.723 89.0341 179.991 90.3664 179.591 92.2316H168.666C166.268 92.2316 164.403 94.0968 164.403 96.4949V100.092H140.822C140.689 99.8256 140.555 99.4259 140.289 99.1594C139.49 97.9604 138.157 97.2943 136.692 97.2943H125.634C123.902 97.2943 122.303 98.3601 121.637 99.9588L119.106 106.487V93.2974C119.106 90.8993 117.24 89.0341 114.842 89.0341H103.651C101.253 89.0341 99.388 90.8993 99.388 93.2974V101.291L84.9994 98.3601V93.031C84.9994 90.6329 83.1342 88.7677 80.7361 88.7677H69.4117C67.0136 88.7677 65.1484 90.6329 65.1484 93.031V123.54C65.1484 125.938 67.0136 127.803 69.4117 127.803H80.7361C83.1342 127.803 84.9994 125.938 84.9994 123.54V115.68L98.855 118.344H99.388V123.407C99.388 125.805 101.253 127.67 103.651 127.67H121.77C122.703 127.67 123.769 127.27 124.435 126.738L133.894 119.144C134.427 118.611 134.96 118.078 135.226 117.412L136.026 115.28C136.692 115.813 137.624 116.213 138.69 116.213H172.13L168.267 120.609C167.201 121.941 166.801 123.673 167.601 125.272C168.267 126.871 169.865 127.803 171.464 127.803H184.92C186.119 127.803 187.318 127.27 188.118 126.338L198.11 115.413C198.776 114.614 199.176 113.548 199.176 112.482V108.086H206.103V111.949C206.103 114.347 207.969 116.213 210.367 116.213H235.813L231.816 120.609C230.617 121.808 230.351 123.673 231.017 125.272C231.683 126.871 233.282 127.803 235.014 127.803H247.804C249.003 127.803 250.202 127.27 251.001 126.471L257.796 119.01L262.459 125.938C263.258 127.137 264.59 127.803 266.056 127.803H278.446C278.846 127.803 279.245 127.803 279.645 127.67C280.045 127.803 280.444 127.803 280.844 127.803H306.424C307.623 127.803 308.822 127.27 309.621 126.338L313.218 122.341V123.54C313.218 125.938 315.084 127.803 317.482 127.803H347.191C347.991 127.803 348.79 127.537 349.456 127.137C350.122 127.537 350.922 127.803 351.721 127.803H366.776C367.575 127.803 368.375 127.537 369.041 127.137L386.094 116.346H402.747L398.751 120.609C397.552 121.808 397.285 123.673 397.951 125.272C398.617 126.871 400.216 127.803 401.948 127.803H414.605C415.804 127.803 417.003 127.27 417.802 126.471L430.592 112.615V115.68C430.592 117.145 431.258 118.477 432.457 119.277C433.656 120.076 435.122 120.209 436.454 119.677L444.048 116.612V123.407C444.048 125.805 445.913 127.67 448.311 127.67H459.502C461.901 127.67 463.766 125.805 463.766 123.407V109.018L470.294 106.487V123.54C470.294 125.938 472.159 127.803 474.557 127.803H485.882C488.28 127.803 490.145 125.938 490.145 123.54V115.68L504 118.344C505.2 118.611 506.532 118.211 507.598 117.412C508.53 116.612 509.196 115.413 509.196 114.081V105.688C509.596 103.689 508.131 101.957 506.132 101.558Z" fill="white"/>
<path d="M80.2033 93.0273H68.8789V123.536H80.2033V110.48L99.2548 114.211V105.817L80.2033 101.954V93.0273Z" fill="#231815"/>
<path d="M120.172 114.347H114.443V93.2969H103.252V123.54H121.371L130.83 115.946L136.426 101.424H125.368L120.172 114.347Z" fill="#231815"/>
<path d="M486.282 101.954V93.0273H474.824V123.536H486.282V110.48L505.2 114.211V105.817L486.282 101.954Z" fill="#231815"/>
<path d="M138.291 104.219H166.269V112.079H138.291V104.219Z" fill="#231815"/>
<path d="M210.1 104.219H238.077V112.079H210.1V104.219Z" fill="#231815"/>
<path d="M194.513 93.0273H183.455V96.2248H168.4V103.819H183.455V109.681L171.065 123.536H184.521L194.513 112.479V103.819H207.836V96.2248H194.513V93.0273Z" fill="#231815"/>
<path d="M424.463 93.0273H414.737V97.1574H402.88V93.0273H393.154V97.1574H386.227V105.418H393.154V112.079H402.88V105.418H414.737V109.947L401.947 123.536H414.737L424.463 113.011V105.418H432.057V97.1574H424.463V93.0273Z" fill="#231815"/>
<path d="M470.827 93.0273L434.988 106.617V115.676L448.444 110.347V123.536H459.769V105.95L470.827 101.82V93.0273Z" fill="#231815"/>
<path d="M302.293 93.0273H291.502V95.6919H277.779V108.482H288.304V102.753H305.224V110.347L299.629 116.475H280.844V123.536H306.423L315.616 113.145V95.6919H302.293V93.0273Z" fill="#231815"/>
<path d="M371.172 85.9688H378.233V90.8982H371.172V85.9688Z" fill="#231815"/>
<path d="M380.498 85.9688H387.559V90.8982H380.498V85.9688Z" fill="#231815"/>
<path d="M347.99 100.088H372.771V110.347L362.512 116.475H351.721V123.536H366.775L383.296 113.145V93.0273H347.99V100.088Z" fill="#231815"/>
<path d="M337.467 109.55H345.46V102.355H319.348V109.55H327.075V116.478H317.482V123.539H347.192V116.478H337.467V109.55Z" fill="#231815"/>
<path d="M263.791 85.9688H270.852V90.8982H263.791V85.9688Z" fill="#231815"/>
<path d="M272.984 85.9688H280.045V90.8982H272.984V85.9688Z" fill="#231815"/>
<path d="M275.781 93.0273L239.543 93.1606V101.021H255.797L235.014 123.536H247.804L258.329 112.079L266.056 123.536H278.579L265.523 104.352L275.781 93.0273Z" fill="#231815"/>
<path d="M71.0111 -0.0976562H54.4908L52.0927 2.30044H24.7811V8.69537H3.73108V53.7263L0.400391 70.6463H24.7811V74.3766H56.4893V70.6463H80.8699L77.5392 53.8596H94.4592L80.2038 74.5099H118.44L131.363 55.7248V39.0713H137.625V53.9928H151.747V74.5099H317.482L330.405 55.7248V53.9928H351.722V74.5099H383.297V53.8596H424.464L410.209 74.5099H448.445L461.368 55.7248V53.9928H493.609V54.7922L507.065 74.3766H557.559L571.015 54.7922V46.7985L559.557 30.145H544.103L563.287 2.30044H524.518L510.263 22.6843H488.28V2.30044H450.044V7.76278H436.455V2.30044H351.722V22.6843H330.405V7.76278H300.962V2.30044H137.625V7.76278H105.517V2.30044H74.2085V3.09981L71.0111 -0.0976562Z" fill="#160A0A"/>
<path d="M557.558 33.8751H536.908L556.092 6.0305H526.383L512.26 26.5476H484.549V6.0305H453.907V11.4928H432.723V6.0305H355.585V26.5476H326.674V11.6261H297.231V6.0305H273.516V11.6261H266.988V6.0305H242.741V15.2232L236.479 6.0305H141.621V11.4928H101.653V6.0305H77.9381V12.159L69.4115 3.76562H55.9555L52.6248 7.09632V6.0305H28.6438V12.4254H7.59383V53.9925L5.0625 66.9156H28.6438V70.6459H52.758V66.9156H76.3393L73.808 53.9925V49.9956H101.653L87.3972 70.6459H116.441L127.632 54.5254V35.3406H141.488V50.2621H155.61V70.6459H315.483L326.674 54.5254V50.2621H355.585V70.6459H379.566V49.9956H431.658L417.402 70.6459H446.446L457.637 54.5254V50.2621H497.472V53.726L509.063 70.7792H555.559L567.15 53.726V47.9972L557.558 33.8751Z" fill="white"/>
<path d="M329.473 31.2109H352.921V45.5995H329.473V31.2109Z" fill="#E50012"/>
<path d="M33.3078 65.9841V31.4781H12.2578V17.2227H33.3078V10.8278H47.9628V17.2227H51.1603V15.2243L57.9549 8.42969H67.5473L74.3419 15.2243V24.8167L67.5473 31.6113H47.9628V66.1173H33.3078V65.9841Z" fill="#E50012"/>
<path d="M10.791 62.2532L12.2565 54.526V38.6719H26.6451V55.0589L25.1796 62.2532H10.791Z" fill="#E50012"/>
<path d="M465.764 45.4663L475.623 31.2109H504.799L494.941 45.4663H465.764Z" fill="#E50012"/>
<path d="M383.562 10.6953H393.421V22.6858H383.562V10.6953Z" fill="#E50012"/>
<path d="M394.887 10.6953H404.746V22.6858H394.887V10.6953Z" fill="#E50012"/>
<path d="M360.514 65.9848V10.6953H374.769V31.0792H405.545L395.686 45.3345H374.769V65.9848H360.514Z" fill="#E50012"/>
<path d="M292.434 16.2909V10.6953H278.179V16.2909H270.851V30.6795H278.179V50.1307L267.254 65.9848H284.84L292.434 54.9269V30.6795H307.622V48.2655L295.365 65.9848H312.951L321.877 53.0617V16.2909H292.434Z" fill="#E50012"/>
<path d="M502.135 52.1291V49.4646L528.914 10.6953H547.033L519.055 51.3298L519.321 51.5962H545.301L545.567 51.3298L536.774 38.6731H555.026L562.487 49.4646V52.1291L553.028 65.9848H511.594L502.135 52.1291Z" fill="#E50012"/>
<path d="M217.695 65.9848L207.836 51.5962H247.271V10.6953H262.193V57.325L256.198 65.9848H217.695Z" fill="#E50012"/>
<path d="M470.027 10.6953H479.886V22.6858H470.027V10.6953Z" fill="#E50012"/>
<path d="M426.329 65.9848L438.586 48.2655V30.5462H427.927V42.9364L426.195 45.3345H408.609L413.672 38.1402V10.6953H427.927V16.2909H458.57V10.6953H468.429V22.819H466.164V30.5462H452.841V53.0617L444.048 65.9848H426.329Z" fill="#E50012"/>
<path d="M160.273 65.9848V45.4677H146.15V31.2124H160.273V25.0839H146.15V10.6953H200.374V25.0839H175.194V31.2124H200.374V45.4677H175.194V51.5962H197.71L207.702 65.9848H160.273Z" fill="#E50012"/>
<path d="M209.301 25.0839V10.6953H233.815L239.277 18.689V25.0839H209.301Z" fill="#E50012"/>
<path d="M96.3238 65.9848L108.581 48.2655V30.5462H96.9899V42.9364L95.2579 45.3345H77.6719L82.7345 38.1402V10.6953H96.9899V16.2909H136.825V30.5462H122.836V53.0617L114.043 65.9848H96.3238Z" fill="#E50012"/>
<path d="M70.4767 62.2532L69.0112 54.526V38.6719H54.7559V55.0589L56.0881 62.2532H70.4767Z" fill="#E50012"/>
<path d="M566.218 19.3553H564.353V23.6186H562.754V19.3553H560.889V18.1562H566.085V19.3553H566.218Z" fill="white"/>
<path d="M566.883 18.1562H569.148L570.214 21.7534L571.28 18.1562H573.545V23.6186H572.079V19.4885L570.747 23.6186H569.548L568.216 19.4885V23.6186H566.75V18.1562H566.883Z" fill="white"/>
<path d="M57.9531 8.42969L51.1585 15.2243V17.2227H47.961L45.4297 19.754H53.6898V16.2901L59.0189 10.961H66.4797L67.5455 8.42969H57.9531Z" fill="white"/>
<path d="M14.7872 19.7544H35.8372V13.3595H45.4296L47.9609 10.8281H33.3058V17.2231H12.2559V31.4784L14.7872 28.9471V19.7544Z" fill="white"/>
<path d="M33.3066 65.9826L35.838 63.4513V28.9453L33.3066 31.4766V65.9826Z" fill="white"/>
<path d="M197.843 33.7423L200.374 31.2109H175.194L172.529 33.7423H197.843Z" fill="white"/>
<path d="M196.377 54.2583L197.709 51.5938H175.194L172.529 54.2583H196.377Z" fill="white"/>
<path d="M148.682 33.7419H162.804V22.5508L160.273 25.0821V31.2106H146.15V45.4659L148.682 42.9346V33.7419Z" fill="white"/>
<path d="M160.273 65.9859L162.805 63.4546V42.9375L160.273 45.4688V65.9859Z" fill="white"/>
<path d="M148.682 13.2266H197.843L200.374 10.6953H146.15V25.0839L148.682 22.5526V13.2266Z" fill="white"/>
<path d="M134.294 18.8204L136.825 16.2891H96.9903L94.459 18.8204H134.294Z" fill="white"/>
<path d="M85.2659 38.9396V13.2266H94.4586L96.9899 10.6953H82.7345V38.1402L77.6719 45.3345L82.6013 42.8032L85.2659 38.9396Z" fill="white"/>
<path d="M108.579 48.2662L96.3223 65.9855H96.4555L101.252 63.4542L111.111 49.0656V28.0156L108.579 30.547V48.2662Z" fill="white"/>
<path d="M394.887 10.6953V22.819L397.551 20.1545V13.2266H402.214L404.746 10.6953H394.887Z" fill="white"/>
<path d="M470.027 10.6953V22.819L472.559 20.1545V13.2266H477.222L479.753 10.6953H470.027Z" fill="white"/>
<path d="M247.269 10.6953V51.5962H207.834L217.693 65.9848L219.025 63.4535L212.63 54.2608H249.801V13.2266H259.66L262.191 10.6953H247.269Z" fill="white"/>
<path d="M383.562 10.6953V22.819L386.094 20.1545V13.2266H390.757L393.288 10.6953H383.562Z" fill="white"/>
<path d="M57.2872 54.7924V41.2032H66.4799L69.0112 38.6719H54.7559V55.0589L56.0881 62.2532L58.2198 59.5886L57.2872 54.7924Z" fill="white"/>
<path d="M211.832 13.2266H232.482L233.815 10.6953H209.301V25.0839L211.832 22.5526V13.2266Z" fill="white"/>
<path d="M12.2565 54.526L10.791 62.2532L13.8553 59.5886L14.7878 54.7924V41.2032H23.9806L26.6451 38.6719H12.2565V54.526Z" fill="white"/>
<path d="M461.102 18.8222V13.2266H465.898L468.429 10.6953H458.57V16.2909H427.928L425.396 18.8222H461.102Z" fill="white"/>
<path d="M413.672 38.1402L408.609 45.3345L413.539 42.8032L416.203 38.9396V13.2266H425.396L427.927 10.6953H413.672V38.1402Z" fill="white"/>
<path d="M438.585 30.547V48.2662L426.328 65.9855L431.258 63.4542L441.116 49.0656V28.0156L438.585 30.547Z" fill="white"/>
<path d="M476.955 33.7423H499.87L504.799 31.2109H475.623L465.764 45.4663L470.56 42.935L476.955 33.7423Z" fill="white"/>
<path d="M363.045 13.2266H372.238L374.769 10.6953H360.514V65.9848L363.045 63.4535V13.2266Z" fill="white"/>
<path d="M400.749 33.6095L405.545 31.0781H374.77L372.238 33.6095H400.749Z" fill="white"/>
<path d="M329.473 31.2109V45.4663L332.004 42.935V33.7423H350.389L352.921 31.2109H329.473Z" fill="white"/>
<path d="M546.632 54.1263L548.631 51.3285L541.703 41.2032H553.693L555.026 38.6719H536.773L545.566 51.3285L545.3 51.595H519.321L517.988 54.1263H546.632Z" fill="white"/>
<path d="M504.666 51.3298V50.2639L530.113 13.2266H542.236L547.033 10.6953H528.914L502.135 49.4646V52.1291L511.594 65.9848L512.926 63.3203L504.666 51.3298Z" fill="white"/>
<path d="M292.434 16.2891L289.902 18.8204H319.346L321.877 16.2891H292.434Z" fill="white"/>
<path d="M273.383 18.8222H280.71V13.2266H289.903L292.434 10.6953H278.179V16.2909H270.852V30.5462L273.383 28.0149V18.8222Z" fill="white"/>
<path d="M307.622 48.2662L295.365 65.9855L300.295 63.4542L310.154 49.0656V28.0156L307.622 30.6802V48.2662Z" fill="white"/>
<path d="M278.179 50.1314L267.254 65.9855L272.05 63.4542L280.71 50.9308V28.0156L278.179 30.6802V50.1314Z" fill="white"/>
<path d="M63.8166 17.3564L65.2821 18.9551V21.0868L63.8166 22.5523H61.685L60.6191 25.0836H65.6818L68.6128 22.1526V18.1557L65.0157 14.5586L63.8166 17.3564Z" fill="white"/>
<path d="M327.873 47.0661H354.519V29.6133H327.873V47.0661ZM329.472 31.212H352.92V45.6006H329.472V31.212Z" fill="#160A0A"/>
<path d="M75.9398 25.4839V14.5592L68.2126 6.83203H57.2879L49.5607 14.5592V9.23013H31.7082V15.6251H10.6582V33.2111H31.7082V67.7171H49.5607V33.0779H68.2126L75.9398 25.4839ZM47.962 31.4792V65.9851H33.3069V31.4792H12.2569V17.2238H33.3069V10.8289H47.962V17.2238H51.1594V15.2254L57.954 8.43076H67.5464L74.341 15.2254V24.8178L67.5464 31.6124H47.962V31.4792Z" fill="#160A0A"/>
<path d="M10.6582 54.3938L8.79297 63.853H26.5123L28.2442 55.3264V37.0742H10.6582V54.3938ZM12.2569 54.5271V38.673H26.6455V55.06L25.18 62.2543H10.7914L12.2569 54.5271Z" fill="#160A0A"/>
<path d="M70.6114 36.9414H53.0254V55.0604L54.7573 63.7202H72.4766L70.6114 54.3942V36.9414ZM56.0896 62.2547L54.6241 55.0604V38.6734H69.0127V54.5275L70.4782 62.2547H56.0896Z" fill="#160A0A"/>
<path d="M474.823 29.6133L462.699 47.1993H495.74L507.863 29.6133H474.823ZM494.94 45.4674H465.763L475.622 31.0788H504.799L494.94 45.4674Z" fill="#160A0A"/>
<path d="M406.344 9.09375H381.963V24.4149H406.344V9.09375ZM393.287 22.8162H383.428V10.6925H393.287V22.8162ZM404.745 22.8162H394.886V10.6925H404.745V22.8162Z" fill="#160A0A"/>
<path d="M376.367 29.4776V9.09375H358.781V67.5807H376.367V46.9304H396.485L408.608 29.3444H376.367V29.4776ZM395.685 45.3317H374.769V65.982H360.38V10.6925H374.769V30.9431H405.544L395.685 45.3317Z" fill="#160A0A"/>
<path d="M294.033 9.09375H276.447V14.6893H269.119V32.2754H276.447V49.7282L264.057 67.7139H285.64L294.033 55.5902V32.2754H305.89V47.863L292.301 67.7139H313.884L323.476 53.725V14.6893H294.033V9.09375ZM321.877 16.288V53.0589L312.951 65.982H295.365L307.489 48.2627V30.6766H292.434V54.9241L284.84 65.982H267.254L278.179 50.1279V30.6766H270.851V16.288H278.179V10.6925H292.434V16.288H321.877Z" fill="#160A0A"/>
<path d="M555.827 36.9383H533.711L542.637 49.9947H521.854L550.098 9.09375H527.982L500.537 48.9288V52.6592L510.662 67.5807H553.961L564.087 52.9257L564.22 52.7924V49.0621L555.827 36.9383ZM562.488 52.1263L553.029 65.8488H511.462L502.003 52.1263V49.3285L528.915 10.6925H547.167L519.189 51.1937L519.455 51.5934H545.435L545.701 51.1937L537.041 38.5371H555.294L562.754 49.3285V52.1263H562.488Z" fill="#160A0A"/>
<path d="M245.672 49.9947H204.771L216.895 67.5807H257.13L263.791 57.8551V9.09375H245.672V49.9947ZM247.271 10.6925H262.059V57.3222L256.064 65.982H217.561L207.836 51.5934H247.271V10.6925Z" fill="#160A0A"/>
<path d="M467.762 24.4149H481.351V9.09375H456.971V14.6893H429.526V9.09375H411.94V37.6045L405.545 46.9304H426.995L429.393 43.3333V32.1421H436.853V47.7298L423.264 67.5807H444.847L454.44 53.5918V32.2754H467.762V24.4149ZM470.027 10.6925H479.886V22.683H470.027V10.6925ZM466.164 30.5434H452.841V53.0589L443.915 65.982H426.328L438.452 48.2627V30.5434H427.794V42.9336L426.062 45.3317H408.476L413.405 38.1374V10.6925H427.661V16.1548H458.303V10.6925H468.162V22.683H466.03V30.5434H466.164Z" fill="#160A0A"/>
<path d="M176.794 49.9947V47.0636H201.974V29.6108H176.794V26.6798H201.974V9.09375H144.553V26.6798H158.675V29.6108H144.553V47.1969H158.675V67.7139H210.767L198.643 50.1279H176.794V49.9947ZM160.274 65.982V45.4649H146.151V31.2095H160.274V25.0811H146.151V10.6925H200.375V25.0811H175.195V31.2095H200.375V45.4649H175.195V51.5934H197.844L207.703 65.982H160.274Z" fill="#160A0A"/>
<path d="M240.875 18.1532L234.746 9.09375H207.701V26.6798H240.875V18.1532ZM239.276 25.0811H209.3V10.6925H233.814L239.276 18.6861V25.0811Z" fill="#160A0A"/>
<path d="M98.5884 9.09375H81.0024V37.6045L74.6074 46.9304H96.0571L98.4552 43.3333V32.1421H106.849V47.7298L93.2593 67.5807H114.842L124.435 53.5918V32.2754H138.423V14.6893H98.5884V9.09375ZM136.825 16.288V30.6766H122.836V53.1921L113.91 66.1152H96.3235L108.447 48.3959V30.5434H96.8564V42.9336L95.2577 45.3317H77.6717L82.6011 38.1374V10.6925H96.9897V16.1548H136.825V16.288Z" fill="#160A0A"/>
<path d="M63.8163 22.5513L65.2818 21.0858V18.9542L63.8163 17.3555H61.6847L60.0859 18.9542V21.0858L61.6847 22.5513H63.8163Z" fill="#160A0A"/>
</g>
<defs>
<clipPath id="clip0_1330_5534">
<rect width="573.679" height="132.367" fill="white"/>
</clipPath>
</defs>
</svg>
